<?xml version="1.0" encoding="UTF-8"?>
<svg width="24px" height="24px" viewBox="0 0 24 24" version="1.1" xmlns="http://www.w3.org/2000/svg" xmlns:xlink="http://www.w3.org/1999/xlink">
    <title>mobile/svg/calender</title>
    <g id="mobile/svg/calender" stroke="none" stroke-width="1" fill="none" fill-rule="evenodd">
        <path d="M15.8461538,2 C16.2709883,2 16.6153846,2.34439635 16.6153846,2.76923077 L16.615,3.538 L18.1538462,3.53846154 C20.2780183,3.53846154 22,5.26044327 22,7.38461538 L22,18.1538462 C22,20.2780183 20.2780183,22 18.1538462,22 L5.84615385,22 C3.72198173,22 2,20.2780183 2,18.1538462 L2,7.38461538 C2,5.26044327 3.72198173,3.53846154 5.84615385,3.53846154 L7.384,3.538 L7.38461538,2.76923077 C7.38461538,2.34439635 7.72901173,2 8.15384615,2 C8.57868058,2 8.92307692,2.34439635 8.92307692,2.76923077 L8.923,3.538 L15.076,3.538 L15.0769231,2.76923077 C15.0769231,2.34439635 15.4213194,2 15.8461538,2 Z M20.461,9.692 L3.538,9.692 L3.53846154,18.1538462 C3.53846154,19.4283494 4.57165058,20.4615385 5.84615385,20.4615385 L18.1538462,20.4615385 C19.4283494,20.4615385 20.4615385,19.4283494 20.4615385,18.1538462 L20.461,9.692 Z M18.1538462,14.3076923 C18.5786806,14.3076923 18.9230769,14.6520887 18.9230769,15.0769231 L18.9230769,18.1538462 C18.9230769,18.5786806 18.5786806,18.9230769 18.1538462,18.9230769 L15.0769231,18.9230769 C14.6520887,18.9230769 14.3076923,18.5786806 14.3076923,18.1538462 L14.3076923,15.0769231 C14.3076923,14.6520887 14.6520887,14.3076923 15.0769231,14.3076923 L18.1538462,14.3076923 Z M17.3846154,15.8461538 L15.8461538,15.8461538 L15.8461538,17.3846154 L17.3846154,17.3846154 L17.3846154,15.8461538 Z M7.384,5.076 L5.84615385,5.07692308 C4.57165058,5.07692308 3.53846154,6.11011212 3.53846154,7.38461538 L3.538,8.153 L20.461,8.153 L20.4615385,7.38461538 C20.4615385,6.11011212 19.4283494,5.07692308 18.1538462,5.07692308 L16.615,5.076 L16.6153846,5.84615385 C16.6153846,6.27098827 16.2709883,6.61538462 15.8461538,6.61538462 C15.4213194,6.61538462 15.0769231,6.27098827 15.0769231,5.84615385 L15.076,5.076 L8.923,5.076 L8.92307692,5.84615385 C8.92307692,6.27098827 8.57868058,6.61538462 8.15384615,6.61538462 C7.72901173,6.61538462 7.38461538,6.27098827 7.38461538,5.84615385 L7.384,5.076 Z" id="Combined-Shape" fill="#5A5A5A" fill-rule="nonzero"></path>
    </g>
</svg>