<?xml version="1.0" encoding="UTF-8"?>
<svg width="24px" height="24px" viewBox="0 0 24 24" version="1.1" xmlns="http://www.w3.org/2000/svg" xmlns:xlink="http://www.w3.org/1999/xlink">
    <title>website/svg/deletebin</title>
    <g id="website/svg/deletebin" stroke="none" stroke-width="1" fill="none" fill-rule="evenodd">
        <path d="M20,5.57142857 L20,6.85714286 L18.75,6.85714286 L18.75,19.7142857 C18.75,20.4243661 18.1903559,21 17.5,21 L7.5,21 C6.80964406,21 6.25,20.4243661 6.25,19.7142857 L6.25,6.85714286 L5,6.85714286 L5,5.57142857 L20,5.57142857 Z M17.5,6.85714286 L7.5,6.85714286 L7.5,19.7142857 L17.5,19.7142857 L17.5,6.85714286 Z M11.25,9.42857143 L11.25,17.1428571 L10,17.1428571 L10,9.42857143 L11.25,9.42857143 Z M15,9.42857143 L15,17.1428571 L13.75,17.1428571 L13.75,9.42857143 L15,9.42857143 Z M10,3 L15,3 L15,4.28571429 L10,4.28571429 Z" id="Combined-Shape" fill="#AFAFAF" fill-rule="nonzero"></path>
    </g>
</svg>