<?xml version="1.0" encoding="UTF-8"?>
<svg width="24px" height="24px" viewBox="0 0 24 24" version="1.1" xmlns="http://www.w3.org/2000/svg" xmlns:xlink="http://www.w3.org/1999/xlink">
    <title>mobile/svg/settings</title>
    <g id="mobile/svg/settings" stroke="none" stroke-width="1" fill="none" fill-rule="evenodd">
        <path d="M15.4180624,4.00000642 C16.4079269,3.99795631 17.3279351,4.48739696 17.8479668,5.29271228 L21.5780182,11.0832973 C22.1406606,11.9575064 22.1406606,13.0601101 21.5780182,13.9343193 L17.8479668,19.7071961 C17.3279351,20.5125114 16.4079269,21.001952 15.4180624,20.9999482 L8.58766054,20.9999482 C7.60146352,21.0057524 6.68226558,20.5234415 6.15775617,19.7249043 L2.42770481,13.9520275 C1.85743173,13.0735118 1.85743173,11.9618129 2.42770481,11.0832973 L6.15775617,5.29271228 C6.67778791,4.48739696 7.59779604,3.99795631 8.58766054,4.00000642 Z M15.4180624,5.4166571 L8.58766054,5.4166571 C8.11137801,5.41466419 7.66873429,5.65113403 7.42086195,6.03999878 L3.68710646,11.8270421 C3.41272459,12.2500841 3.41272459,12.7852407 3.68710646,13.2082826 L7.42086195,18.9599096 C7.66873429,19.3487743 8.11137801,19.5852441 8.58766054,19.5832512 L15.4180624,19.5832512 C15.894345,19.5852441 16.3369887,19.3487743 16.584861,18.9599096 L20.3186165,13.2082826 C20.6007236,12.7809719 20.6007236,12.2366446 20.3186165,11.8093339 L16.584861,6.03999878 C16.3369887,5.65113403 15.894345,5.41466419 15.4180624,5.4166571 Z M12.0028615,8.95831196 C12.9852559,8.95831196 13.9274139,9.33144819 14.6220716,9.99563495 C15.3167293,10.6598217 15.706984,11.5606523 15.706984,12.4999542 C15.706984,14.4559491 14.0485919,16.0415964 12.0028615,16.0415964 C9.95713112,16.0415964 8.29873898,14.4559491 8.29873898,12.4999542 C8.29873898,10.5439592 9.95713112,8.95831196 12.0028615,8.95831196 Z M12.0028615,10.3749688 C10.7754233,10.3749688 9.78038798,11.3263572 9.78038798,12.4999542 C9.78038798,13.6735512 10.7754233,14.6249395 12.0028615,14.6249395 C13.2302997,14.6249395 14.225335,13.6735512 14.225335,12.4999542 C14.225335,11.3263572 13.2302997,10.3749688 12.0028615,10.3749688 Z" id="Combined-Shape" fill="#231F20" fill-rule="nonzero"></path>
    </g>
</svg>